<?xml version="1.0" encoding="UTF-8"?>
<svg width="40" height="40" viewBox="0 0 40 40" xmlns="http://www.w3.org/2000/svg">
    <path d="M20 2C10.059 2 2 10.059 2 20s8.059 18 18 18 18-8.059 18-18S29.941 2 20 2zm0 2c8.837 0 16 7.163 16 16s-7.163 16-16 16S4 28.837 4 20 11.163 4 20 4z" fill="#608BC1"/>
    <path d="M20 6c-7.732 0-14 6.268-14 14s6.268 14 14 14 14-6.268 14-14S27.732 6 20 6zm0 2c6.627 0 12 5.373 12 12s-5.373 12-12 12S8 26.627 8 20 13.373 8 20 8z" fill="#608BC1" opacity="0.8"/>
    <path d="M20 10c-5.523 0-10 4.477-10 10s4.477 10 10 10 10-4.477 10-10S25.523 10 20 10zm0 2c4.418 0 8 3.582 8 8s-3.582 8-8 8-8-3.582-8-8 3.582-8 8-8z" fill="#608BC1" opacity="0.6"/>
    <path d="M20 14c-3.314 0-6 2.686-6 6s2.686 6 6 6 6-2.686 6-6-2.686-6-6-6zm0 2c2.209 0 4 1.791 4 4s-1.791 4-4 4-4-1.791-4-4 1.791-4 4-4z" fill="#608BC1" opacity="0.4"/>
    <path d="M20 18c-1.105 0-2 .895-2 2s.895 2 2 2 2-.895 2-2-.895-2-2-2z" fill="#608BC1" opacity="0.2"/>
</svg>
